<svg id="Capa_1" data-name="Capa 1" xmlns="http://www.w3.org/2000/svg" xmlns:xlink="http://www.w3.org/1999/xlink" viewBox="0 0 1280 525"><defs><style>.cls-1{fill:none;}.cls-2,.cls-21{fill:#003595;}.cls-3{clip-path:url(#clip-path);}.cls-4{clip-path:url(#clip-path-2);}.cls-5{fill:url(#Degradado_sin_nombre_38);}.cls-17,.cls-25,.cls-35,.cls-42,.cls-50,.cls-6{opacity:0.25;}.cls-6{fill:url(#Degradado_sin_nombre_29);}.cls-18,.cls-26,.cls-36,.cls-43,.cls-51,.cls-7{opacity:0.3;}.cls-7{fill:url(#Degradado_sin_nombre_22);}.cls-19,.cls-27,.cls-37,.cls-44,.cls-52,.cls-8{opacity:0.5;}.cls-8{fill:url(#Degradado_sin_nombre_22-2);}.cls-20,.cls-28,.cls-38,.cls-45,.cls-53,.cls-9{opacity:0.15;}.cls-9{fill:url(#Degradado_sin_nombre_32);}.cls-10{clip-path:url(#clip-path-3);}.cls-11{clip-path:url(#clip-path-5);}.cls-12{clip-path:url(#clip-path-7);}.cls-13{fill:#fff;}.cls-14{clip-path:url(#clip-path-9);}.cls-15{clip-path:url(#clip-path-10);}.cls-16{fill:url(#Degradado_sin_nombre_38-5);}.cls-17{fill:url(#Degradado_sin_nombre_29-5);}.cls-18{fill:url(#Degradado_sin_nombre_22-9);}.cls-19{fill:url(#Degradado_sin_nombre_22-10);}.cls-20{fill:url(#Degradado_sin_nombre_32-5);}.cls-21{font-size:53.48px;font-family:ArialMT, Arial;letter-spacing:0.04em;}.cls-22{clip-path:url(#clip-path-11);}.cls-23{clip-path:url(#clip-path-12);}.cls-24{fill:url(#Degradado_sin_nombre_38-6);}.cls-25{fill:url(#Degradado_sin_nombre_29-6);}.cls-26{fill:url(#Degradado_sin_nombre_22-11);}.cls-27{fill:url(#Degradado_sin_nombre_22-12);}.cls-28{fill:url(#Degradado_sin_nombre_32-6);}.cls-29{clip-path:url(#clip-path-13);}.cls-30{clip-path:url(#clip-path-15);}.cls-31{clip-path:url(#clip-path-17);}.cls-32{clip-path:url(#clip-path-19);}.cls-33{clip-path:url(#clip-path-20);}.cls-34{fill:url(#Degradado_sin_nombre_38-10);}.cls-35{fill:url(#Degradado_sin_nombre_29-10);}.cls-36{fill:url(#Degradado_sin_nombre_22-19);}.cls-37{fill:url(#Degradado_sin_nombre_22-20);}.cls-38{fill:url(#Degradado_sin_nombre_32-10);}.cls-39{clip-path:url(#clip-path-21);}.cls-40{clip-path:url(#clip-path-22);}.cls-41{fill:url(#Degradado_sin_nombre_38-11);}.cls-42{fill:url(#Degradado_sin_nombre_29-11);}.cls-43{fill:url(#Degradado_sin_nombre_22-21);}.cls-44{fill:url(#Degradado_sin_nombre_22-22);}.cls-45{fill:url(#Degradado_sin_nombre_32-11);}.cls-46{clip-path:url(#clip-path-23);}.cls-47{clip-path:url(#clip-path-25);}.cls-48{clip-path:url(#clip-path-26);}.cls-49{fill:url(#Degradado_sin_nombre_38-13);}.cls-50{fill:url(#Degradado_sin_nombre_29-13);}.cls-51{fill:url(#Degradado_sin_nombre_22-25);}.cls-52{fill:url(#Degradado_sin_nombre_22-26);}.cls-53{fill:url(#Degradado_sin_nombre_32-13);}</style><clipPath id="clip-path"><path class="cls-1" d="M83.08,117.53l39-11.82c-.51-4.78-1-9.71-1.43-14.9L65,101.26v263.1l36.15-11.58V333.09l-18.07,3.47Z"/></clipPath><clipPath id="clip-path-2"><rect class="cls-1" x="45.43" y="-15.74" width="228.11" height="486.64"/></clipPath><linearGradient id="Degradado_sin_nombre_38" x1="-19.2" y1="48.9" x2="338.17" y2="406.27" gradientUnits="userSpaceOnUse"><stop offset="0" stop-color="#49a3da"/><stop offset="0.17" stop-color="#4297cf"/><stop offset="0.47" stop-color="#3078b3"/><stop offset="0.84" stop-color="#154989"/></linearGradient><radialGradient id="Degradado_sin_nombre_29" cx="34.02" cy="304.57" r="113.58" gradientUnits="userSpaceOnUse"><stop offset="0.36" stop-color="#fff" stop-opacity="0.5"/><stop offset="0.46" stop-color="#fff" stop-opacity="0.46"/><stop offset="0.63" stop-color="#fff" stop-opacity="0.34"/><stop offset="0.85" stop-color="#fff" stop-opacity="0.14"/><stop offset="1" stop-color="#fff" stop-opacity="0"/></radialGradient><radialGradient id="Degradado_sin_nombre_22" cx="283.99" cy="25.13" r="102.17" gradientUnits="userSpaceOnUse"><stop offset="0" stop-color="#fff" stop-opacity="0.5"/><stop offset="0.15" stop-color="#fff" stop-opacity="0.46"/><stop offset="0.42" stop-color="#fff" stop-opacity="0.34"/><stop offset="0.76" stop-color="#fff" stop-opacity="0.14"/><stop offset="1" stop-color="#fff" stop-opacity="0"/></radialGradient><radialGradient id="Degradado_sin_nombre_22-2" cx="50.42" cy="102.83" r="136.15" xlink:href="#Degradado_sin_nombre_22"/><radialGradient id="Degradado_sin_nombre_32" cx="184.67" cy="362.07" r="78.89" gradientUnits="userSpaceOnUse"><stop offset="0.04" stop-color="#fff" stop-opacity="0.5"/><stop offset="0.17" stop-color="#fff" stop-opacity="0.46"/><stop offset="0.39" stop-color="#fff" stop-opacity="0.34"/><stop offset="0.69" stop-color="#fff" stop-opacity="0.14"/><stop offset="0.89" stop-color="#fff" stop-opacity="0"/></radialGradient><clipPath id="clip-path-3"><path class="cls-1" d="M134.27,102,205.7,80.34c-.25-1.87-.47-3.69-.65-5.41L135.56,88C135.16,92.85,134.74,97.51,134.27,102Z"/></clipPath><clipPath id="clip-path-5"><path class="cls-1" d="M219.39,72.24c-.15,1.3-.31,2.67-.47,4.08l34.61-10.5Z"/></clipPath><clipPath id="clip-path-7"><path class="cls-1" d="M128,123.37c2.71-18.46,4.25-36.93,5.36-55.39.07-1.16.13-2.35.28-3.29s.17-2,.37-3l.62-2.92c.26-1,.6-1.89.88-2.83A38,38,0,0,1,141,45.63a35,35,0,0,1,8.35-8,36.11,36.11,0,0,1,32.84-4.51,38.58,38.58,0,0,1,23.76,24.43,41,41,0,0,1,1.46,6c.31,1.94.51,4.33.75,6.64,1,9.23,2.14,18.47,3.92,27.7,1.77-9.23,2.93-18.47,3.91-27.7.23-2.31.52-4.54.58-7.2a41.88,41.88,0,0,0-.53-7.73,44.65,44.65,0,0,0-5.11-14.82,46.72,46.72,0,0,0-39.61-23.85,52,52,0,0,0-16,2.27A47.32,47.32,0,0,0,123.77,52.6c-.26,1.3-.57,2.59-.78,3.89l-.43,3.92a61,61,0,0,0,.06,7.57C123.73,86.44,125.27,104.91,128,123.37Z"/></clipPath><clipPath id="clip-path-9"><circle class="cls-1" cx="232.95" cy="238.67" r="78.88"/></clipPath><clipPath id="clip-path-10"><rect class="cls-1" x="149.03" y="-9.51" width="169.59" height="486.64"/></clipPath><linearGradient id="Degradado_sin_nombre_38-5" x1="69.77" y1="69.75" x2="397.88" y2="397.87" xlink:href="#Degradado_sin_nombre_38"/><radialGradient id="Degradado_sin_nombre_29-5" cx="50.81" cy="310.8" r="113.58" gradientTransform="translate(102.78) scale(0.74 1)" xlink:href="#Degradado_sin_nombre_29"/><radialGradient id="Degradado_sin_nombre_22-9" cx="300.78" cy="31.36" r="102.17" gradientTransform="translate(102.78) scale(0.74 1)" xlink:href="#Degradado_sin_nombre_22"/><radialGradient id="Degradado_sin_nombre_22-10" cx="67.21" cy="109.06" r="136.15" gradientTransform="translate(102.78) scale(0.74 1)" xlink:href="#Degradado_sin_nombre_22"/><radialGradient id="Degradado_sin_nombre_32-5" cx="201.46" cy="368.3" r="78.89" gradientTransform="translate(102.78) scale(0.74 1)" xlink:href="#Degradado_sin_nombre_32"/><clipPath id="clip-path-11"><path class="cls-1" d="M416.17,187.89a48.26,48.26,0,0,0-42.31,72.34,49.7,49.7,0,0,0,17.54,17.92,45.71,45.71,0,0,0,24.05,6.76h1.32a46.5,46.5,0,0,0,24.78-7l.86-.52V268.5l-2.82,1.92a41,41,0,0,1-23.42,7.4,39.61,39.61,0,0,1-29.05-12.23,41.28,41.28,0,0,1,0-58.43A39.71,39.71,0,0,1,416.17,195a41,41,0,0,1,23.42,7.39l2.82,1.92v-8.9l-.89-.52A49.74,49.74,0,0,0,416.17,187.89Z"/></clipPath><clipPath id="clip-path-12"><rect class="cls-1" x="518.6" y="-54.67" width="274.23" height="585.02" transform="translate(893.55 -417.87) rotate(90)"/></clipPath><linearGradient id="Degradado_sin_nombre_38-6" x1="449.9" y1="-54.35" x2="879.53" y2="375.28" gradientTransform="translate(-9 77.38)" xlink:href="#Degradado_sin_nombre_38"/><radialGradient id="Degradado_sin_nombre_29-6" cx="513.89" cy="253.02" r="136.54" gradientTransform="translate(816.18 -426.87) rotate(90)" xlink:href="#Degradado_sin_nombre_29"/><radialGradient id="Degradado_sin_nombre_22-11" cx="814.4" cy="-82.92" r="122.83" gradientTransform="translate(816.18 -426.87) rotate(90)" xlink:href="#Degradado_sin_nombre_22"/><radialGradient id="Degradado_sin_nombre_22-12" cx="533.6" cy="10.49" r="163.68" gradientTransform="translate(816.18 -426.87) rotate(90)" xlink:href="#Degradado_sin_nombre_22"/><radialGradient id="Degradado_sin_nombre_32-6" cx="694.99" cy="322.14" r="94.84" gradientTransform="translate(816.18 -426.87) rotate(90)" xlink:href="#Degradado_sin_nombre_32"/><clipPath id="clip-path-13"><path class="cls-1" d="M485,224.49a29.62,29.62,0,0,0-21.56,8.89,28.84,28.84,0,0,0-9,21.08,29.81,29.81,0,0,0,8.82,21.29h0a28.48,28.48,0,0,0,21.16,9.16h1.08a28.35,28.35,0,0,0,21.17-9.1,29.92,29.92,0,0,0,8.68-21.29,29,29,0,0,0-8.89-21.14A29.44,29.44,0,0,0,485,224.49Zm22.93,30.27a22.37,22.37,0,0,1-6.71,16.32,21.52,21.52,0,0,1-16.1,6.86,23.5,23.5,0,0,1-23.18-23.12,22.42,22.42,0,0,1,6.89-16.37,21.83,21.83,0,0,1,16.23-7,21.55,21.55,0,0,1,16.1,6.92A22.47,22.47,0,0,1,507.9,254.76Z"/></clipPath><clipPath id="clip-path-15"><path class="cls-1" d="M586.15,224.49a23.49,23.49,0,0,0-13.48,3.8h0a19.37,19.37,0,0,0-6,6.44A22.14,22.14,0,0,0,561,228.4a17.84,17.84,0,0,0-10.9-3.91,21.84,21.84,0,0,0-10.74,2.87,25.82,25.82,0,0,0-4.49,3.12v-4.67H527.4v57.78h7.46V245.67a14.67,14.67,0,0,1,14.33-14.21,13,13,0,0,1,9.78,4.21,13.83,13.83,0,0,1,4.07,10v37.92h7.46V245.67a13.26,13.26,0,0,1,4.44-9.9,14.16,14.16,0,0,1,10.19-4.31,13.08,13.08,0,0,1,9.73,4.1,14,14,0,0,1,4,10.35v37.68h7.46V245.91c0-6.5-2-11.76-6.09-15.63A19.93,19.93,0,0,0,586.15,224.49Z"/></clipPath><clipPath id="clip-path-17"><path class="cls-1" d="M680.17,224.49a23.47,23.47,0,0,0-13.48,3.8h0a19.27,19.27,0,0,0-6,6.44A22.14,22.14,0,0,0,655,228.4a17.86,17.86,0,0,0-10.9-3.91,21.9,21.9,0,0,0-10.75,2.87,25.35,25.35,0,0,0-4.48,3.12v-4.67h-7.46v57.78h7.46V245.67a13.5,13.5,0,0,1,4.29-9.92,13.65,13.65,0,0,1,10-4.29,13,13,0,0,1,9.77,4.21,13.83,13.83,0,0,1,4.07,10v37.92h7.46V245.67a13.27,13.27,0,0,1,4.45-9.9,14.16,14.16,0,0,1,10.18-4.31,13.05,13.05,0,0,1,9.73,4.1,14,14,0,0,1,4.06,10.35v37.68h7.46V245.91c0-6.5-2-11.76-6.1-15.63A19.89,19.89,0,0,0,680.17,224.49Z"/></clipPath><clipPath id="clip-path-19"><path class="cls-1" d="M766.73,235.07c-6.27-6.94-13.89-10.46-22.64-10.46A30.25,30.25,0,0,0,722,233.5a28.8,28.8,0,0,0-9,21.08,29.55,29.55,0,0,0,9,21.31A29,29,0,0,0,743.24,285h1.09a28.79,28.79,0,0,0,22-10l.48-.51V261.79l-3.3,4.9a26.83,26.83,0,0,1-8.86,8.3,23.77,23.77,0,0,1-12,3.07c-3.88,0-8-1.56-12.3-4.64l37.55-37.07Zm-23.67-3.49a23,23,0,0,1,14.34,4.83l-32.2,32a22.57,22.57,0,0,1-4.71-14.18c0-6,2.25-11.13,6.87-15.76S737.13,231.58,743.06,231.58Z"/></clipPath><clipPath id="clip-path-20"><rect class="cls-1" x="554.67" y="-54.67" width="274.23" height="585.02" transform="translate(929.63 -453.95) rotate(90)"/></clipPath><linearGradient id="Degradado_sin_nombre_38-10" x1="449.9" y1="-90.42" x2="879.53" y2="339.2" gradientTransform="translate(27.07 113.45)" xlink:href="#Degradado_sin_nombre_38"/><radialGradient id="Degradado_sin_nombre_29-10" cx="513.89" cy="216.94" r="136.54" gradientTransform="translate(816.18 -426.87) rotate(90)" xlink:href="#Degradado_sin_nombre_29"/><radialGradient id="Degradado_sin_nombre_22-19" cx="814.4" cy="-118.99" r="122.83" gradientTransform="translate(816.18 -426.87) rotate(90)" xlink:href="#Degradado_sin_nombre_22"/><radialGradient id="Degradado_sin_nombre_22-20" cx="533.6" cy="-25.58" r="163.68" gradientTransform="translate(816.18 -426.87) rotate(90)" xlink:href="#Degradado_sin_nombre_22"/><radialGradient id="Degradado_sin_nombre_32-10" cx="694.99" cy="286.07" r="94.84" gradientTransform="translate(816.18 -426.87) rotate(90)" xlink:href="#Degradado_sin_nombre_32"/><clipPath id="clip-path-21"><path class="cls-1" d="M801.87,224.49a21.92,21.92,0,0,0-11.14,2.89,21.41,21.41,0,0,0-4,3v-4.56h-7.46v57.78h7.46V245.67a13.41,13.41,0,0,1,4.34-9.91,13.68,13.68,0,0,1,10-4.3c3.79,0,7.2,1.56,10.41,4.77l3.07,3.08V229.24l-.72-.55A19.75,19.75,0,0,0,801.87,224.49Z"/></clipPath><clipPath id="clip-path-22"><rect class="cls-1" x="644.85" y="-54.67" width="274.23" height="585.02" transform="translate(1019.81 -544.13) rotate(90)"/></clipPath><linearGradient id="Degradado_sin_nombre_38-11" x1="449.9" y1="-180.6" x2="879.53" y2="249.02" gradientTransform="translate(117.25 203.63)" xlink:href="#Degradado_sin_nombre_38"/><radialGradient id="Degradado_sin_nombre_29-11" cx="513.89" cy="126.76" r="136.54" gradientTransform="translate(816.18 -426.87) rotate(90)" xlink:href="#Degradado_sin_nombre_29"/><radialGradient id="Degradado_sin_nombre_22-21" cx="814.4" cy="-209.17" r="122.83" gradientTransform="translate(816.18 -426.87) rotate(90)" xlink:href="#Degradado_sin_nombre_22"/><radialGradient id="Degradado_sin_nombre_22-22" cx="533.6" cy="-115.76" r="163.68" gradientTransform="translate(816.18 -426.87) rotate(90)" xlink:href="#Degradado_sin_nombre_22"/><radialGradient id="Degradado_sin_nombre_32-11" cx="694.99" cy="195.89" r="94.84" gradientTransform="translate(816.18 -426.87) rotate(90)" xlink:href="#Degradado_sin_nombre_32"/><clipPath id="clip-path-23"><path class="cls-1" d="M853.27,224.73a30.12,30.12,0,0,0-22,8.89,28.92,28.92,0,0,0-9,21.14,29.7,29.7,0,0,0,8.82,21.3,28.59,28.59,0,0,0,21.16,9.09h1.08a28.88,28.88,0,0,0,22.16-9.85l.47-.52v-13l-3.31,5a25.83,25.83,0,0,1-8.83,8.33,22.3,22.3,0,0,1-11.09,3,21.88,21.88,0,0,1-16.12-6.88,22.89,22.89,0,0,1,0-32.72,21.87,21.87,0,0,1,16.12-6.88,22.24,22.24,0,0,1,11.09,3,26.24,26.24,0,0,1,8.84,8.23l3.3,4.89V235.09l-.49-.52A29.49,29.49,0,0,0,853.27,224.73Z"/></clipPath><clipPath id="clip-path-25"><path class="cls-1" d="M926.1,275a23.72,23.72,0,0,1-12,3.07c-3.88,0-8-1.56-12.3-4.64l37.55-37.07-1.16-1.28c-6.27-6.94-13.89-10.46-22.64-10.46a30.25,30.25,0,0,0-22.1,8.89,28.84,28.84,0,0,0-9,21.08,29.52,29.52,0,0,0,9,21.31,28.91,28.91,0,0,0,21.2,9.14h1.09a28.83,28.83,0,0,0,22-10l.47-.51V261.8l-3.3,4.89A26.92,26.92,0,0,1,926.1,275Zm-11.62-43.41a23.06,23.06,0,0,1,14.35,4.83l-32.21,32a22.57,22.57,0,0,1-4.71-14.18c0-6,2.25-11.13,6.88-15.76S908.55,231.58,914.48,231.58Z"/></clipPath><clipPath id="clip-path-26"><rect class="cls-1" x="626.82" y="-54.67" width="274.23" height="585.02" transform="translate(1001.77 -526.09) rotate(90)"/></clipPath><linearGradient id="Degradado_sin_nombre_38-13" x1="449.9" y1="-162.57" x2="879.53" y2="267.06" gradientTransform="translate(99.22 185.6)" xlink:href="#Degradado_sin_nombre_38"/><radialGradient id="Degradado_sin_nombre_29-13" cx="513.89" cy="144.8" r="136.54" gradientTransform="translate(816.18 -426.87) rotate(90)" xlink:href="#Degradado_sin_nombre_29"/><radialGradient id="Degradado_sin_nombre_22-25" cx="814.4" cy="-191.13" r="122.83" gradientTransform="translate(816.18 -426.87) rotate(90)" xlink:href="#Degradado_sin_nombre_22"/><radialGradient id="Degradado_sin_nombre_22-26" cx="533.6" cy="-97.72" r="163.68" gradientTransform="translate(816.18 -426.87) rotate(90)" xlink:href="#Degradado_sin_nombre_22"/><radialGradient id="Degradado_sin_nombre_32-13" cx="694.99" cy="213.93" r="94.84" gradientTransform="translate(816.18 -426.87) rotate(90)" xlink:href="#Degradado_sin_nombre_32"/></defs><title>logoInolabEcommerce_140px</title><polygon class="cls-2" points="587.5 474.45 587.5 335.78 624.41 335.78 624.41 442.49 680.46 442.49 680.46 474.45 587.5 474.45"/><polygon class="cls-2" points="692.84 474.69 718.69 391.51 750.58 391.51 735.1 442.71 775.91 442.63 744.04 337.32 777.69 337.32 827.54 474.69 692.84 474.69"/><path class="cls-2" d="M842.2,474V448.15h46.4c.26,0,15.75-1.52,15.75-14.2,0-.62,2.42-13.63-15.45-13.51l-46.7,0V391.67h43.31s1,.1,2.33.1h0a23.7,23.7,0,0,0,10.07-2A11.33,11.33,0,0,0,904.55,379c0-.3,2.22-15.65-17.57-14H842.2V336.22h62.51c.11,0,.68,0,1.66,0,9.5-.61,34.75,1.75,39.39,28,.07.4,4,25.82-18.53,39.45l1,.75h0c.91.33,16.14,9.77,18,31.73a33.76,33.76,0,0,1-7.42,23c-7.47,9.25-20.08,14.21-37,14.9Z"/><path class="cls-2" d="M301.54,336.07l80.74-.59c26.21-1.93,35.38,18.85,35.12,20.54V474.33H377l-1.76-106.56c-19.11-12.9-34.17.36-34.17.36l.57,106.2H301.78V345Z"/><path class="cls-2" d="M1031.58,474.23c.08,0-9.32-.45-19.57-11.27-10.45-11-62.47-110-64.56-113.84-.46-1.28-7.06-14.43,0-25.62l68.69-117c.06-.1,8.09-11.32,20.1-11.32h132s9.6-.51,20.58,10.55c11.13,11.19,65.23,109.13,67.81,113.78.44,1.57,6.28,12.41,1.38,23.71l-69.25,116c-.09.17-6.29,12-25.14,14.39Zm69.51-253.68c-26.09,0-44.88,7.78-45.67,8.11-57.59,19.53-68.88,81.74-69,82.36-12.2,80.24,44.9,118.2,45.48,118.57,23.18,18.9,50.16,22.88,68.69,22.88a120.77,120.77,0,0,0,30.25-3.55c37.8-9.23,64.59-46.17,65.71-47.74,32.17-38.73,17.31-93.68,17.16-94.23l-2.24-8.39L1152,371.18a26.43,26.43,0,0,1-10.4,9.16l-.2,0-79.57,26.87a16.67,16.67,0,0,1-3.92.51,11.2,11.2,0,0,1-8.06-3l-28.52-41.43c-1.8-2.57-3.17-5.21-2-6.93A28.67,28.67,0,0,1,1023,352h0l50.4-52.37c2.68-2.78,3.72-5.11,3.17-7.11a4.07,4.07,0,0,0-2.75-2.71s-26.33-9.72-31.54-11.63c-1.31-.48-2.21-1.11-2.39-1.68a1,1,0,0,1,0-.61l17.32-18.78L1182,252.73l-3.25-2.9C1156.85,230.4,1130.74,220.55,1101.09,220.55Z"/><path class="cls-2" d="M572,405.73c0,38.08-31.89,69-71.23,69s-71.23-30.88-71.23-69,31.89-69,71.23-69S572,367.64,572,405.73ZM499,369.2c-18.45,0-33.4,16.77-33.4,37.45s14.95,37.46,33.4,37.46,33.39-16.76,33.39-37.46S517.46,369.2,499,369.2Z"/><rect class="cls-2" x="248.95" y="334.74" width="38.15" height="139.69"/><g id="Logo"><g class="cls-3"><g class="cls-4"><rect class="cls-5" x="45.43" y="-15.74" width="228.11" height="486.64"/><circle class="cls-6" cx="34.02" cy="304.57" r="113.58"/><circle class="cls-7" cx="283.99" cy="25.13" r="102.17"/><circle class="cls-8" cx="50.42" cy="102.83" r="136.15"/><circle class="cls-9" cx="184.67" cy="362.07" r="78.89"/></g></g><g class="cls-10"><g class="cls-4"><rect class="cls-5" x="45.43" y="-15.74" width="228.11" height="486.64"/><circle class="cls-6" cx="34.02" cy="304.57" r="113.58"/><circle class="cls-7" cx="283.99" cy="25.13" r="102.17"/><circle class="cls-8" cx="50.42" cy="102.83" r="136.15"/><circle class="cls-9" cx="184.67" cy="362.07" r="78.89"/></g></g><g class="cls-11"><g class="cls-4"><rect class="cls-5" x="45.43" y="-15.74" width="228.11" height="486.64"/><circle class="cls-6" cx="34.02" cy="304.57" r="113.58"/><circle class="cls-7" cx="283.99" cy="25.13" r="102.17"/><circle class="cls-8" cx="50.42" cy="102.83" r="136.15"/><circle class="cls-9" cx="184.67" cy="362.07" r="78.89"/></g></g><polygon class="cls-2" points="122.85 371.52 122.85 152.5 293.29 100.79 104.76 136.23 104.76 399.33 284.97 340.48 122.85 371.52"/><g class="cls-12"><g class="cls-4"><rect class="cls-5" x="45.43" y="-15.74" width="228.11" height="486.64"/><circle class="cls-6" cx="34.02" cy="304.57" r="113.58"/><circle class="cls-7" cx="283.99" cy="25.13" r="102.17"/><circle class="cls-8" cx="50.42" cy="102.83" r="136.15"/><circle class="cls-9" cx="184.67" cy="362.07" r="78.89"/></g></g></g><circle class="cls-13" cx="232.95" cy="238" r="94.65"/><g class="cls-14"><g class="cls-15"><rect class="cls-16" x="149.03" y="-9.51" width="169.59" height="486.64"/><ellipse class="cls-17" cx="140.55" cy="310.8" rx="84.44" ry="113.58"/><ellipse class="cls-18" cx="326.4" cy="31.36" rx="75.96" ry="102.17"/><ellipse class="cls-19" cx="152.74" cy="109.06" rx="101.23" ry="136.15"/><ellipse class="cls-20" cx="252.55" cy="368.3" rx="58.65" ry="78.89"/></g></g><path class="cls-13" d="M234.19,289h-1.87q-19.71,0-34.33-14.83t-14.62-34.53q0-19.71,14.52-34.12t35.88-14.42q21.36,0,36.71,17l-65.12,64.3q13.47,10.79,25.92,10.79a43.62,43.62,0,0,0,22.3-5.71,48.92,48.92,0,0,0,16.28-15.24v10.58Q255.13,289,234.19,289ZM232,196.91q-16.48,0-29.25,12.76T190,239a42.5,42.5,0,0,0,11,29l60.36-59.95A43.43,43.43,0,0,0,232,196.91Z"/><path class="cls-13" d="M234.19,291h-1.87c-13.63,0-25.66-5.19-35.75-15.42s-15.2-22.32-15.2-35.94,5.08-25.58,15.11-35.54,22.57-15,37.29-15,27.62,6,38.2,17.67l1.28,1.42-64.86,64c8,5.95,15.64,9,22.89,9a41.87,41.87,0,0,0,21.3-5.44,47.18,47.18,0,0,0,15.62-14.63l3.66-5.43v17.9l-.52.57C261.17,285.34,248.67,291,234.19,291Zm-.42-97.9c-13.63,0-25.23,4.66-34.47,13.84s-13.93,20.18-13.93,32.7,4.73,23.68,14,33.13S219.8,287,232.32,287h1.87c13.06,0,24.39-5,33.67-15v-3.86a51,51,0,0,1-13.28,11,45.76,45.76,0,0,1-23.3,6c-8.72,0-17.87-3.78-27.17-11.23l-1.76-1.4,65.35-64.52C258.16,198.13,246.76,193.1,233.77,193.1ZM200.91,271l-1.41-1.59A44.6,44.6,0,0,1,188,239c0-11.56,4.49-21.91,13.34-30.77s19.17-13.34,30.66-13.34a45.6,45.6,0,0,1,30.66,11.69l1.62,1.42ZM232,198.91c-10.39,0-19.76,4.1-27.83,12.17S192,228.56,192,239a40.59,40.59,0,0,0,9.12,26.09l57.26-56.87A41.41,41.41,0,0,0,232,198.91Z"/><text class="cls-21" transform="translate(321.12 256.95)">■</text><g class="cls-22"><g class="cls-23"><rect class="cls-24" x="518.6" y="-54.67" width="274.23" height="585.02" transform="translate(893.55 -417.87) rotate(90)"/><circle class="cls-25" cx="563.16" cy="87.01" r="136.54"/><circle class="cls-26" cx="899.09" cy="387.52" r="122.83"/><circle class="cls-27" cx="805.68" cy="106.72" r="163.68"/><circle class="cls-28" cx="494.03" cy="268.12" r="94.84"/></g></g><g class="cls-29"><g class="cls-23"><rect class="cls-24" x="518.6" y="-54.67" width="274.23" height="585.02" transform="translate(893.55 -417.87) rotate(90)"/><circle class="cls-25" cx="563.16" cy="87.01" r="136.54"/><circle class="cls-26" cx="899.09" cy="387.52" r="122.83"/><circle class="cls-27" cx="805.68" cy="106.72" r="163.68"/><circle class="cls-28" cx="494.03" cy="268.12" r="94.84"/></g></g><g class="cls-30"><g class="cls-23"><rect class="cls-24" x="518.6" y="-54.67" width="274.23" height="585.02" transform="translate(893.55 -417.87) rotate(90)"/><circle class="cls-25" cx="563.16" cy="87.01" r="136.54"/><circle class="cls-26" cx="899.09" cy="387.52" r="122.83"/><circle class="cls-27" cx="805.68" cy="106.72" r="163.68"/><circle class="cls-28" cx="494.03" cy="268.12" r="94.84"/></g></g><g class="cls-31"><g class="cls-23"><rect class="cls-24" x="518.6" y="-54.67" width="274.23" height="585.02" transform="translate(893.55 -417.87) rotate(90)"/><circle class="cls-25" cx="563.16" cy="87.01" r="136.54"/><circle class="cls-26" cx="899.09" cy="387.52" r="122.83"/><circle class="cls-27" cx="805.68" cy="106.72" r="163.68"/><circle class="cls-28" cx="494.03" cy="268.12" r="94.84"/></g></g><g class="cls-32"><g class="cls-33"><rect class="cls-34" x="554.67" y="-54.67" width="274.23" height="585.02" transform="translate(929.63 -453.95) rotate(90)"/><circle class="cls-35" cx="599.23" cy="87.01" r="136.54"/><circle class="cls-36" cx="935.16" cy="387.52" r="122.83"/><circle class="cls-37" cx="841.75" cy="106.72" r="163.68"/><circle class="cls-38" cx="530.1" cy="268.12" r="94.84"/></g></g><g class="cls-39"><g class="cls-40"><rect class="cls-41" x="644.85" y="-54.67" width="274.23" height="585.02" transform="translate(1019.81 -544.13) rotate(90)"/><circle class="cls-42" cx="689.41" cy="87.01" r="136.54"/><circle class="cls-43" cx="1025.35" cy="387.52" r="122.83"/><circle class="cls-44" cx="931.94" cy="106.72" r="163.68"/><circle class="cls-45" cx="620.29" cy="268.12" r="94.84"/></g></g><g class="cls-46"><g class="cls-40"><rect class="cls-41" x="644.85" y="-54.67" width="274.23" height="585.02" transform="translate(1019.81 -544.13) rotate(90)"/><circle class="cls-42" cx="689.41" cy="87.01" r="136.54"/><circle class="cls-43" cx="1025.35" cy="387.52" r="122.83"/><circle class="cls-44" cx="931.94" cy="106.72" r="163.68"/><circle class="cls-45" cx="620.29" cy="268.12" r="94.84"/></g></g><g class="cls-47"><g class="cls-48"><rect class="cls-49" x="626.82" y="-54.67" width="274.23" height="585.02" transform="translate(1001.77 -526.09) rotate(90)"/><circle class="cls-50" cx="671.38" cy="87.01" r="136.54"/><circle class="cls-51" cx="1007.31" cy="387.52" r="122.83"/><circle class="cls-52" cx="913.9" cy="106.72" r="163.68"/><circle class="cls-53" cx="602.25" cy="268.12" r="94.84"/></g></g></svg>